<?xml version="1.0" encoding="iso-8859-1"?>
<!-- Uploaded to: SVG Repo, www.svgrepo.com, Generator: SVG Repo Mixer Tools -->
<svg height="200px" width="200px" version="1.1" id="Layer_1" xmlns="http://www.w3.org/2000/svg" xmlns:xlink="http://www.w3.org/1999/xlink" 
	 viewBox="0 0 512 512" xml:space="preserve">
<g transform="translate(0 1)">
	<path style="fill:#FFE100;" d="M237.328,8.387c-76.8,8.533-138.24,70.827-146.773,146.773
		c-5.973,54.613,14.507,104.107,50.347,138.24c27.307,25.6,42.667,61.44,42.667,98.133v8.533h136.533
		c0-39.253,17.067-75.947,46.08-101.547c34.133-30.72,56.32-75.093,56.32-124.587C422.501,75.8,337.168-2.707,237.328,8.387"/>
	<path style="fill:#FFA800;" d="M243.301,8.387c86.187,6.827,153.6,78.507,153.6,165.547c0,49.493-21.333,93.867-56.32,124.587
		c-29.013,25.6-46.08,62.293-46.08,101.547h25.6c0-39.253,17.067-75.947,46.08-101.547c34.133-30.72,56.32-75.093,56.32-124.587
		C422.501,77.507,340.581,0.707,243.301,8.387"/>
	<path style="fill:#FFFFFF;" d="M268.901,8.387c-86.187,5.973-153.6,77.653-153.6,165.547c0,49.493,21.333,93.867,56.32,124.587
		c29.013,25.6,46.08,62.293,46.08,101.547h-25.6c0-39.253-17.067-75.947-46.08-101.547c-34.987-30.72-56.32-75.093-56.32-124.587
		C89.701,77.507,171.621,0.707,268.901,8.387"/>
	<polygon style="fill:#FFE100;" points="277.434,502.467 226.234,502.467 200.634,468.333 303.034,468.333 	"/>
	<g>
		<polygon style="fill:#FDCC00;" points="183.568,468.333 320.101,468.333 320.101,434.2 183.568,434.2 		"/>
		<polygon style="fill:#FDCC00;" points="183.568,434.2 320.101,434.2 320.101,400.067 183.568,400.067 		"/>
	</g>
	<path d="M328.634,476.867h-153.6v-51.2h153.6V476.867z M192.101,459.8h119.467v-17.067H192.101V459.8z"/>
	<path d="M328.634,442.733h-153.6v-51.2h153.6V442.733z M192.101,425.667h119.467V408.6H192.101V425.667z"/>
	<path d="M281.701,511h-59.733l-38.4-51.2h136.533L281.701,511z M230.501,493.933h42.667l12.8-17.067h-68.267L230.501,493.933z"/>
	<path d="M328.634,408.6h-153.6v-16.213c0-34.133-14.507-67.413-40.107-92.16c-39.253-37.547-58.88-91.307-52.907-145.92
		C90.554,74.093,155.408,9.24,235.621-0.147C242.448-1,249.274-1,256.101-1c96.427,0,174.933,78.507,174.933,174.933
		c0,50.347-21.333,97.28-58.88,130.56c-27.307,24.747-43.52,59.733-43.52,95.573V408.6L328.634,408.6z M192.101,391.533h119.467
		c2.56-37.547,19.627-73.387,49.493-99.84c34.133-29.867,52.907-73.387,52.907-117.76c0-87.04-70.827-157.867-157.867-157.867
		c-5.973,0-11.947,0-17.92,0.853c-72.533,8.533-131.413,66.56-139.093,139.093c-5.12,49.493,11.947,97.28,47.787,131.413
		C175.034,314.733,192.101,353.133,192.101,391.533z"/>
	<path d="M251.834,289.133c-5.12,0-8.533-3.413-8.533-8.533V75.8c0-5.12,3.413-8.533,8.533-8.533c5.12,0,8.533,3.413,8.533,8.533
		v204.8C260.368,285.72,256.954,289.133,251.834,289.133z"/>
	<path d="M251.834,272.067c-21.333,0-39.253-7.68-49.493-20.48c-2.56-3.413-2.56-9.387,1.707-11.947
		c3.413-2.56,9.387-2.56,11.947,1.707c6.827,8.533,20.48,13.653,35.84,13.653c20.48,0,42.667-12.8,42.667-34.133
		c0-20.48-22.187-34.133-42.667-34.133c-29.013,0-59.733-19.627-59.733-51.2s30.72-51.2,59.733-51.2
		c21.333,0,39.253,6.827,49.493,20.48c2.56,3.413,2.56,9.387-1.707,11.947c-3.413,2.56-9.387,2.56-11.947-1.707
		c-6.827-8.533-19.627-13.653-35.84-13.653c-20.48,0-42.667,13.653-42.667,34.133c0,21.333,22.187,34.133,42.667,34.133
		c29.013,0,59.733,19.627,59.733,51.2S280.848,272.067,251.834,272.067z"/>
	<path d="M294.501,144.067c-5.12,0-8.533-3.413-8.533-8.533v-51.2c0-5.12,3.413-8.533,8.533-8.533s8.533,3.413,8.533,8.533v51.2
		C303.034,140.653,299.621,144.067,294.501,144.067z"/>
	<path d="M209.168,280.6c-5.12,0-8.533-3.413-8.533-8.533v-51.2c0-5.12,3.413-8.533,8.533-8.533c5.12,0,8.533,3.413,8.533,8.533
		v51.2C217.701,277.187,214.288,280.6,209.168,280.6z"/>
</g>
</svg>